<svg width="40" height="36.274" viewBox="4 6.69995 40 36.274" fill="none" xmlns="http://www.w3.org/2000/svg">
<g clip-path="url(#clip0_13440_1868)">
<path d="M25.6866 39.9768C25.3924 40.035 25.0963 40.0866 24.7964 40.1315C21.7619 40.5833 19.0723 40.292 16.7886 39.4524L18.0054 42.4563C18.1334 42.7667 18.4238 42.974 18.7609 42.974H26.0228C26.4192 42.974 26.6923 42.5394 26.5663 42.1879L25.6875 39.9768H25.6866Z" fill="url(#paint0_linear_13440_1868)"/>
<path d="M23.5221 34.5325L19.6185 24.71C19.2565 24.9583 18.8592 25.2811 18.5105 25.6498C17.2622 26.9698 16.3663 30.0377 18.3367 32.6481C19.6175 34.3444 21.907 34.6176 23.5221 34.5325Z" fill="url(#paint1_linear_13440_1868)"/>
<path d="M15.3691 14.0163L12.8561 7.69423C12.7291 7.3628 12.4387 7.15649 12.1015 7.15649H4.58178C4.1854 7.15649 3.89313 7.57007 4.03831 7.96358L9.34599 21.0728C10.6134 17.9247 12.8762 15.5722 15.3691 14.0163Z" fill="url(#paint2_linear_13440_1868)"/>
<path d="M37.5653 20.9523C34.9129 22.6133 32.9129 22.3086 30.7734 22.9199C29.2022 23.3688 28.4276 24.1997 27.9194 25.2055C29.7609 25.0632 31.206 25.6449 32.1125 26.5666C33.2223 27.6965 33.7629 29.2868 33.8776 30.8761L38.5405 20.2732C38.2234 20.5139 37.8977 20.7431 37.5663 20.9513L37.5653 20.9523Z" fill="url(#paint3_linear_13440_1868)"/>
<path d="M24.7953 40.1314C23.4772 40.3272 22.2241 40.3836 21.0416 40.3158L20.2316 42.1888C20.0932 42.5403 20.351 42.9748 20.7474 42.9748H28.0093C28.3465 42.9748 28.6445 42.7676 28.7829 42.4572L30.805 37.8601C29.1765 39.0846 27.0628 39.7943 24.7953 40.1314Z" fill="url(#paint4_linear_13440_1868)"/>
<path d="M43.4386 7.15649H35.9188C35.5817 7.15649 35.2837 7.36376 35.1452 7.69423L34.5864 8.98653C36.7097 9.18424 39.7298 10.424 41.4911 13.5645L43.9544 7.96358C44.1129 7.57007 43.835 7.15649 43.4386 7.15649Z" fill="url(#paint5_linear_13440_1868)"/>
<path d="M35.0475 15.3824C36.2443 15.3289 37.1755 14.3107 37.1211 13.1139C37.0676 11.9172 36.0494 10.9859 34.8526 11.0404C33.6549 11.0938 32.7246 12.112 32.7781 13.3088C32.8316 14.5056 33.8497 15.4368 35.0465 15.3833L35.0475 15.3824ZM35.9911 12.5867C36.3092 12.5724 36.5795 12.8198 36.5938 13.1378C36.6082 13.4559 36.3608 13.7262 36.0427 13.7405C35.7247 13.7548 35.4544 13.5075 35.44 13.1894C35.4257 12.8713 35.6731 12.601 35.9911 12.5867Z" fill="url(#paint6_linear_13440_1868)"/>
<path d="M24.1685 7.83954C26.4045 8.65044 27.8172 12.2169 28.5813 14.9152C29.5574 18.3641 31.5336 18.3412 33.5002 18.0404C35.0274 17.8063 38.0266 16.0776 39.5844 15.6774C41.2788 15.2428 41.8223 15.409 40.443 13.3268C38.2711 10.0488 35.5289 9.65811 34.675 9.61895C34.2576 9.59985 33.8488 9.49001 33.4782 9.29707C32.3292 8.6982 30.9777 7.48709 28.0664 6.91306C24.6327 6.23587 22.7836 7.33523 24.1685 7.83763V7.83954ZM34.6979 10.3009C36.3083 10.2293 37.6713 11.4757 37.7438 13.0851C37.8155 14.6955 36.569 16.0585 34.9596 16.131C33.3493 16.2027 31.9863 14.9562 31.9137 13.3468C31.8421 11.7365 33.0885 10.3735 34.6979 10.3009Z" fill="url(#paint7_linear_13440_1868)"/>
<path d="M27.3476 20.1312C27.659 19.5581 27.1833 18.6574 26.3027 18.6965C25.6236 18.7271 24.9426 19.0719 24.2195 19.9239C23.209 21.114 23.0476 22.1933 23.4936 22.9641C23.9167 23.6948 24.8423 23.9746 26.3562 23.6499C27.3906 23.4283 27.6886 22.9431 28.6246 22.4722C28.6714 22.4483 28.6685 22.3795 28.6198 22.3595C28.5186 22.3175 28.3247 22.2888 27.977 22.3939C27.3036 22.5983 25.6398 22.9469 25.7344 22.1131C25.8022 21.519 26.7191 21.2897 27.3476 20.1312Z" fill="url(#paint8_linear_13440_1868)"/>
<path d="M40.4375 16.2028C37.935 16.5448 35.7296 19.3796 32.3045 19.3844C30.613 19.3873 28.2433 18.3118 27.3798 15.7969C26.3426 12.7739 26.2948 12.1368 25.2518 12.0022C24.6864 11.9296 23.0464 11.8904 21.3482 12.2667C18.6843 12.858 16.4283 14.2372 15.5563 14.8943C8.7643 20.0148 7.44049 29.5613 12.6517 35.5452C15.4607 38.7707 19.6796 39.7698 23.0464 39.5778C29.7304 39.1957 32.4583 34.7429 32.6283 31.6483C32.8327 27.9347 29.9682 25.2212 26.8497 26.5183C26.098 26.8306 25.4906 27.4457 25.268 28.4228C25.014 29.5346 25.4142 31.2433 27.5527 31.2911C27.7466 31.2853 27.8307 31.2013 27.8383 31.0771C27.845 30.9663 27.7657 30.8966 27.6263 30.8317C27.5269 30.7849 26.5661 30.2872 26.8679 29.2337C27.1382 28.2929 28.4725 28.0197 29.2242 28.8096C29.9826 29.6053 30.2748 31.0236 29.5117 32.6044C28.7027 34.2797 25.7552 36.359 20.9556 35.4039C19.3023 35.0744 16.3175 33.4793 16.0539 29.8803C15.8648 27.3024 17.1475 25.4934 18.159 24.586C19.4198 23.4533 20.9556 22.65 22.523 22.1734C22.4953 21.2985 22.7723 20.4398 23.5612 19.5105C24.3845 18.541 25.2499 18.0491 26.2069 18.0061C26.907 17.9746 27.5097 18.2478 27.8698 18.84C28.2022 19.3853 28.1315 20.0539 27.8469 20.5783C27.6501 20.9403 27.4324 21.2259 27.2194 21.4589C29.164 21.4771 30.8728 21.8926 32.2787 21.7197C36.2053 21.2364 38.3381 19.4465 39.3295 18.3719C39.6151 18.0625 39.9217 17.774 40.2474 17.5056C40.6333 17.1876 40.9465 16.9039 41.1548 16.69C41.5349 16.2984 41.0927 16.1121 40.4375 16.2019V16.2028ZM13.3585 32.2051C10.027 27.185 10.6918 21.095 14.1742 16.7902C15.6393 15.2038 17.223 14.2219 18.4331 13.6383C15.6174 15.6154 12.4607 19.8696 12.4167 24.6214C12.389 27.6625 12.795 30.1258 13.5619 32.0991C13.7807 32.6617 13.6918 32.7075 13.3585 32.2051ZM26.1678 17.0606C21.4064 16.0643 17.264 18.9546 15.2019 23.5163C15.0691 23.8095 14.945 24.1658 14.8389 24.5669C14.7005 25.0904 14.5304 25.1448 14.5839 24.524C14.858 21.3224 17.1485 18.2468 19.3806 17.1876C22.4552 15.7272 24.6673 16.0281 26.2022 16.7807C26.7227 17.0367 26.6855 17.1685 26.1687 17.0606H26.1678Z" fill="url(#paint9_linear_13440_1868)"/>
</g>
<defs>
<linearGradient id="paint0_linear_13440_1868" x1="21.6922" y1="7.00654" x2="21.6922" y2="42.4658" gradientUnits="userSpaceOnUse">
<stop stop-color="#5693FC"/>
<stop offset="0.34" stop-color="#4D83FF"/>
<stop offset="1" stop-color="#364ECF"/>
</linearGradient>
<linearGradient id="paint1_linear_13440_1868" x1="20.354" y1="6.69998" x2="20.354" y2="42.4659" gradientUnits="userSpaceOnUse">
<stop stop-color="#5693FC"/>
<stop offset="0.34" stop-color="#4D83FF"/>
<stop offset="1" stop-color="#364ECF"/>
</linearGradient>
<linearGradient id="paint2_linear_13440_1868" x1="9.6841" y1="7.00654" x2="9.6841" y2="42.4658" gradientUnits="userSpaceOnUse">
<stop stop-color="#5693FC"/>
<stop offset="0.34" stop-color="#4D83FF"/>
<stop offset="1" stop-color="#364ECF"/>
</linearGradient>
<linearGradient id="paint3_linear_13440_1868" x1="33.229" y1="7.0064" x2="33.229" y2="42.4657" gradientUnits="userSpaceOnUse">
<stop stop-color="#5693FC"/>
<stop offset="0.34" stop-color="#4D83FF"/>
<stop offset="1" stop-color="#364ECF"/>
</linearGradient>
<linearGradient id="paint4_linear_13440_1868" x1="25.5002" y1="7.00645" x2="25.5002" y2="42.4658" gradientUnits="userSpaceOnUse">
<stop stop-color="#5693FC"/>
<stop offset="0.34" stop-color="#4D83FF"/>
<stop offset="1" stop-color="#364ECF"/>
</linearGradient>
<linearGradient id="paint5_linear_13440_1868" x1="39.2933" y1="7.00654" x2="39.2933" y2="42.4658" gradientUnits="userSpaceOnUse">
<stop stop-color="#5693FC"/>
<stop offset="0.34" stop-color="#4D83FF"/>
<stop offset="1" stop-color="#364ECF"/>
</linearGradient>
<linearGradient id="paint6_linear_13440_1868" x1="34.95" y1="7.00683" x2="34.95" y2="42.4661" gradientUnits="userSpaceOnUse">
<stop stop-color="#5693FC"/>
<stop offset="0.34" stop-color="#4D83FF"/>
<stop offset="1" stop-color="#364ECF"/>
</linearGradient>
<linearGradient id="paint7_linear_13440_1868" x1="32.4648" y1="7.00666" x2="32.4648" y2="42.466" gradientUnits="userSpaceOnUse">
<stop stop-color="#5693FC"/>
<stop offset="0.34" stop-color="#4D83FF"/>
<stop offset="1" stop-color="#364ECF"/>
</linearGradient>
<linearGradient id="paint8_linear_13440_1868" x1="25.9588" y1="7.00668" x2="25.9588" y2="42.466" gradientUnits="userSpaceOnUse">
<stop stop-color="#5693FC"/>
<stop offset="0.34" stop-color="#4D83FF"/>
<stop offset="1" stop-color="#364ECF"/>
</linearGradient>
<linearGradient id="paint9_linear_13440_1868" x1="25.3798" y1="7.00683" x2="25.3798" y2="42.4661" gradientUnits="userSpaceOnUse">
<stop stop-color="#5693FC"/>
<stop offset="0.34" stop-color="#4D83FF"/>
<stop offset="1" stop-color="#364ECF"/>
</linearGradient>
<clipPath id="clip0_13440_1868">
<rect width="40" height="36.274" fill="white" transform="translate(4 6.69995)"/>
</clipPath>
</defs>
</svg>
